<svg width="94" height="94" viewBox="0 0 94 94" fill="none" xmlns="http://www.w3.org/2000/svg">
<mask id="mask0_22_2016" style="mask-type:alpha" maskUnits="userSpaceOnUse" x="0" y="0" width="94" height="94">
<circle cx="46.9511" cy="46.9511" r="46.9511" fill="white"/>
</mask>
<g mask="url(#mask0_22_2016)">
<circle cx="46.9511" cy="46.9511" r="46.9511" fill="white"/>
<path fill-rule="evenodd" clip-rule="evenodd" d="M64.4855 38.2872C64.4855 48.686 56.0629 57.1086 45.6641 57.1086C35.2653 57.1086 26.8427 48.686 26.8427 38.2872C26.8427 27.8884 35.2653 19.4658 45.6641 19.4658C56.0629 19.4658 64.4855 27.8884 64.4855 38.2872ZM8.02148 85.341C8.02148 72.8247 33.101 66.5196 45.6643 66.5196C58.2275 66.5196 83.3071 72.8247 83.3071 85.341V90.0463C83.3071 92.6343 81.1897 94.7517 78.6017 94.7517H12.7268C10.1389 94.7517 8.02148 92.6343 8.02148 90.0463V85.341Z" fill="#757575"/>
</g>
</svg>
