<svg width="60" height="67" viewBox="0 0 60 67" fill="none" xmlns="http://www.w3.org/2000/svg">
<path fill-rule="evenodd" clip-rule="evenodd" d="M53.3333 6.66667H50V3.33333C50 1.5 48.5 0 46.6667 0C44.8333 0 43.3333 1.5 43.3333 3.33333V6.66667H16.6667V3.33333C16.6667 1.5 15.1667 0 13.3333 0C11.5 0 10 1.5 10 3.33333V6.66667H6.66667C2.96667 6.66667 0.0333333 9.66667 0.0333333 13.3333L0 60C0 63.6667 2.96667 66.6667 6.66667 66.6667H53.3333C57 66.6667 60 63.6667 60 60V13.3333C60 9.66667 57 6.66667 53.3333 6.66667ZM53.3333 56.6667C53.3333 58.5 51.8333 60 50 60H10C8.16667 60 6.66667 58.5 6.66667 56.6667V23.3334H53.3333V56.6667ZM20 36.6667V30H13.3333V36.6667H20ZM26.6667 30H33.3333V36.6667H26.6667V30ZM46.6667 30H40V36.6667H46.6667V30Z" fill="black"/>
</svg>
