<svg width="156" height="156" viewBox="0 0 156 156" fill="none" xmlns="http://www.w3.org/2000/svg">
<g filter="url(#filter0_d_22_1967)">
<rect x="4" width="147.929" height="147.929" rx="30" fill="black" fill-opacity="0.5" shape-rendering="crispEdges"/>
<path fill-rule="evenodd" clip-rule="evenodd" d="M71.7397 49.3095C71.7397 59.5413 63.542 67.8007 53.3102 67.8007C43.0784 67.8007 34.819 59.5413 34.819 49.3095C34.819 39.0777 43.0784 30.8184 53.3102 30.8184C63.542 30.8184 71.7397 39.0777 71.7397 49.3095ZM121.049 49.3095C121.049 59.5413 112.852 67.8007 102.62 67.8007C92.3881 67.8007 84.1287 59.5413 84.1287 49.3095C84.1287 39.0777 92.3881 30.8184 102.62 30.8184C112.852 30.8184 121.049 39.0777 121.049 49.3095ZM53.3101 80.1281C38.9486 80.1281 10.1641 87.3396 10.1641 101.701V110.947C10.1641 114.337 12.9377 117.11 16.3278 117.11H90.2924C93.6824 117.11 96.4561 114.337 96.4561 110.947V101.701C96.4561 87.3396 67.6715 80.1281 53.3101 80.1281ZM96.6409 80.4362C98.7982 80.2513 100.832 80.1281 102.62 80.1281C116.981 80.1281 145.766 87.3396 145.766 101.701V110.947C145.766 114.337 142.992 117.11 139.602 117.11H107.674C108.352 115.2 108.783 113.104 108.783 110.947V101.701C108.783 92.6404 103.914 85.7987 96.8874 80.6828C96.8688 80.6641 96.8501 80.6398 96.8298 80.6133C96.7828 80.5522 96.7268 80.4792 96.6409 80.4362Z" fill="white"/>
</g>
<defs>
<filter id="filter0_d_22_1967" x="0" y="0" width="155.93" height="155.929" filterUnits="userSpaceOnUse" color-interpolation-filters="sRGB">
<feFlood flood-opacity="0" result="BackgroundImageFix"/>
<feColorMatrix in="SourceAlpha" type="matrix" values="0 0 0 0 0 0 0 0 0 0 0 0 0 0 0 0 0 0 127 0" result="hardAlpha"/>
<feOffset dy="4"/>
<feGaussianBlur stdDeviation="2"/>
<feComposite in2="hardAlpha" operator="out"/>
<feColorMatrix type="matrix" values="0 0 0 0 0 0 0 0 0 0 0 0 0 0 0 0 0 0 0.25 0"/>
<feBlend mode="normal" in2="BackgroundImageFix" result="effect1_dropShadow_22_1967"/>
<feBlend mode="normal" in="SourceGraphic" in2="effect1_dropShadow_22_1967" result="shape"/>
</filter>
</defs>
</svg>
