<svg width="60" height="48" viewBox="0 0 60 48" fill="none" xmlns="http://www.w3.org/2000/svg">
<path fill-rule="evenodd" clip-rule="evenodd" d="M54 0H6C2.7 0 0.03 2.7 0.03 6L0 42C0 45.3 2.7 48 6 48H54C57.3 48 60 45.3 60 42V6C60 2.7 57.3 0 54 0ZM53.9997 39.0001C53.9997 40.6501 52.6497 42.0001 50.9997 42.0001H8.99975C7.34975 42.0001 5.99975 40.6501 5.99975 39.0001V12.0001L26.8197 25.0201C28.7697 26.2501 31.2297 26.2501 33.1797 25.0201L53.9997 12.0001V39.0001ZM5.99975 6.00013L29.9997 21.0001L53.9997 6.00013H5.99975Z" fill="black"/>
</svg>
