<svg width="61" height="61" viewBox="0 0 61 61" fill="none" xmlns="http://www.w3.org/2000/svg">
<path fill-rule="evenodd" clip-rule="evenodd" d="M9.44539 9.21321C21.1763 -2.51769 40.1409 -2.51769 51.8718 9.21322C63.6027 20.9441 63.6027 39.9087 51.8718 51.6396C40.1409 63.3705 21.1763 63.3705 9.44539 51.6396C-2.28551 39.9087 -2.28551 20.9441 9.44539 9.21321ZM27.6675 45.6787C27.6675 47.3333 29.0039 48.6697 30.6586 48.6697C32.292 48.6485 33.6496 47.2909 33.6496 45.6787V33.4174H45.9109C47.5655 33.4174 48.9019 32.081 48.9019 30.4264C48.9019 28.7717 47.5655 27.4353 45.9109 27.4353L33.6496 27.4353V15.1741C33.6496 13.5194 32.3132 12.183 30.6586 12.183C29.865 12.1821 29.1037 12.497 28.5426 13.0581C27.9815 13.6192 27.6666 14.3805 27.6675 15.1741V27.4353L15.4063 27.4353C14.6127 27.4344 13.8514 27.7493 13.2903 28.3104C12.7292 28.8715 12.4143 29.6328 12.4152 30.4264C12.4152 32.081 13.7516 33.4174 15.4063 33.4174L27.6675 33.4174V45.6787Z" fill="black"/>
</svg>
